<svg xmlns="http://www.w3.org/2000/svg" viewBox="0 0 200 200" fill="none">
  <!-- Background rounded square -->
  <rect width="200" height="200" rx="44" fill="#0D9B6B"/>
  <rect width="200" height="200" rx="44" fill="url(#grad1)"/>
  <!-- Chat bubble body -->
  <path d="M48 56 C48 47.2 55.2 40 64 40 H136 C144.8 40 152 47.2 152 56 V112 C152 120.8 144.8 128 136 128 H108 L88 154 L80 128 H64 C55.2 128 48 120.8 48 112 Z" fill="white" opacity="0.95"/>
  <!-- Key icon inside bubble -->
  <circle cx="88" cy="84" r="16" stroke="#0D9B6B" stroke-width="7" fill="none"/>
  <rect x="100" y="80" width="26" height="8" rx="4" fill="#0D9B6B"/>
  <rect x="120" y="88" width="8" height="10" rx="2" fill="#0D9B6B"/>
  <rect x="110" y="88" width="8" height="7" rx="2" fill="#0D9B6B"/>
  <defs>
    <linearGradient id="grad1" x1="0" y1="0" x2="200" y2="200" gradientUnits="userSpaceOnUse">
      <stop offset="0%" stop-color="#10B981"/>
      <stop offset="100%" stop-color="#059669"/>
    </linearGradient>
  </defs>
</svg>
